<?xml version="1.0" encoding="utf-8"?>
<!-- Svg Vector Icons : http://www.onlinewebfonts.com/icon -->
<!DOCTYPE svg PUBLIC "-//W3C//DTD SVG 1.1//EN" "http://www.w3.org/Graphics/SVG/1.1/DTD/svg11.dtd">
<svg fill="#c9c9c9" version="1.1" xmlns="http://www.w3.org/2000/svg" xmlns:xlink="http://www.w3.org/1999/xlink" x="0px" y="0px" viewBox="0 0 1000 1000" enable-background="new 0 0 1000 1000" xml:space="preserve">
<metadata> Svg Vector Icons : http://www.onlinewebfonts.com/icon </metadata>
<g><path d="M395.9,662.3c12.3,18.4,42.9,42.9,42.9,42.9c6.1-91.9-18.4-153.1-18.4-153.1C402,576.6,395.9,662.3,395.9,662.3z"/><path d="M843,582.7c91.9-73.5,116.4-245,116.4-245c6.1-30.6,30.6-104.1,30.6-104.1c-79.6,0-153.1,42.9-165.4,49c12.3-42.9,18.4-91.9,18.4-91.9c-110.3-12.3-159.3,42.9-177.6,55.1c-42.9-61.3-98-91.9-98-91.9C524.5,123.3,500,74.3,500,74.3c6.1,30.6-98,104.1-98,104.1c-24.5,12.3-49,42.9-67.4,73.5c-6.1-6.1-61.3-73.5-177.6-61.3c0,0,12.3,49,18.4,91.9c-18.4-12.3-91.9-49-165.4-49c0,0,24.5,73.5,30.6,104.1c0,0,24.5,171.5,116.4,245l0,0c-12.3-6.1-98-12.2-147,55.1c0,0,98,85.8,238.9,98c0,0,0,0-6.1,0c0,0-49,73.5,79.6,128.6c0,0,159.2,49,183.7,61.3c0,0,42.9-18.4,177.6-61.3c0,0,128.6-49,91.9-140.9c0,0,0,0-6.1,0c128.6-24.5,208.3-98,208.3-98C941,570.4,861.4,576.6,843,582.7z M904.3,307.1c-6.1,6.1-18.4,73.5-18.4,73.5c6.1,55.1-30.6,122.5-30.6,122.5c-42.9,85.8-147,110.2-147,110.2c-6.1,0-12.3,0-18.4,0c55.1-61.2,91.9-177.6,110.3-245C849.1,300.9,904.3,307.1,904.3,307.1z M769.5,258.1c0,0-18.4,153.1-42.9,196c0,0,6.1-12.3,0-49l0,0l0,0c-6.1-24.5-12.3-55.1-30.6-104.1C696,300.9,708.3,245.8,769.5,258.1z M297.9,300.9c-49,116.4-30.6,153.1-30.6,153.1c-24.5-42.9-42.9-196-42.9-196C291.8,245.8,297.9,300.9,297.9,300.9z M138.6,503.1c0,0-36.8-67.4-30.6-122.5c0,0-6.1-67.4-18.4-73.5c0,0,61.3-6.1,110.3,67.4c18.4,73.5,55.1,183.7,116.4,245c-6.1,0-18.4-6.1-30.6-6.1C291.8,613.3,181.5,588.8,138.6,503.1z M794,686.8c-61.3,24.5-110.3,6.1-134.8-6.1c-6.1,6.1-6.1,12.3-12.3,24.5c0,0,91.9-6.1,73.5,73.5l-91.9,98h-18.4c0,0-49-12.3-104.1-12.3c-61.2,0-104.1,12.3-104.1,12.3h-24.5l-98-98c-18.4-85.7,73.5-73.5,73.5-73.5c-6.1-12.2-12.3-18.4-12.3-30.6c-18.4,12.3-73.5,36.8-140.9,12.3L77.4,631.7c0,0,36.8-36.8,110.3-24.5l0,0c12.3,6.1,30.6,18.4,55.1,24.5c0,0,67.4,24.5,98,36.8c-6.1-12.3-6.1-18.4-6.1-18.4l12.3-55.1l0,0c0,0-98-177.6,30.6-318.5c0,0,24.5-42.9,128.6-85.7c0,0,85.8,24.5,159.3,116.4c0,0,79.6,98,6.1,287.9l12.3,61.3c0,0,0,6.1,0,12.3c30.6-12.3,85.8-30.6,85.8-30.6c24.5-6.1,42.9-18.4,55.1-24.5c67.4-6.1,104.1,24.5,104.1,24.5L794,686.8z"/><path d="M653.1,527.6l6.1,49c6.1-24.5,12.3-49,12.3-85.8c0,0,6.1-134.8-61.3-208.2c0,0-49-55.1-110.3-61.3c0,0-98,24.5-128.6,85.7c0,0-73.5,110.3-30.6,269.5l6.1-49c12.3-91.9,73.5-73.5,73.5-73.5c79.6-24.5,42.9-98,42.9-98c-18.4-24.5,0-30.6,0-30.6c-6.1-61.3,24.5-67.4,36.8-67.4c18.4,0,49,6.1,42.9,67.4c0,0,18.4,6.1,0,30.6c0,0-36.8,67.4,30.6,98C573.5,454.1,640.9,441.8,653.1,527.6z"/><path d="M567.4,705.2c0,0,36.8-24.5,42.9-42.9c0,0-6.1-85.8-18.4-110.3C585.8,552.1,561.3,607.2,567.4,705.2z"/></g>
</svg>