<?xml version="1.0" encoding="utf-8"?>
<!-- Generator: Adobe Illustrator 24.1.2, SVG Export Plug-In . SVG Version: 6.00 Build 0)  -->
<svg version="1.1" id="Layer_1" xmlns="http://www.w3.org/2000/svg" xmlns:xlink="http://www.w3.org/1999/xlink" x="0px" y="0px"
	 viewBox="0 0 776.2 1047.2" style="enable-background:new 0 0 776.2 1047.2;" xml:space="preserve">
<style type="text/css">
	.st0{display:none;}
	.st1{fill:none;stroke:#A3A3A3;stroke-width:5;}
</style>
<g id="Layer_1_1_" class="st0">
	
		<image style="display:inline;overflow:visible;enable-background:new    ;" width="3024" height="4032" xlink:href="11055A9C.png"  transform="matrix(0.3141 0 0 0.3141 -76 -222.4113)">
	</image>
</g>
<g id="Layer_2_1_">
	<path class="st1" d="M23.4,1044.1c-1,0-11.2-41.9-11.2-41.9l-5.1-38.8v-42.9v-51.1l8.2-92.9l71.5-249.2l26.5-50
		c0,0,10.2-16.3,28.6-25.5s137.9-66.4,137.9-66.4s7.2-5.1,9.2-8.2s5.1-17.4,5.1-21.5s10.2-20.4,10.2-23.5s-10.2-15.3-15.3-37.8
		s-12.3-27.6-14.3-35.7c-2-8.2-4.1-24.5-4.1-29.6s-5.1-33.7-5.1-33.7l1-9.2c0,0,6.1-3.1,9.2,0s-10.2-65.4-5.1-77.6
		S273.7,82,288,70.8s25.5-15.3,25.5-15.3s3.1-28.6,14.3-34.7C339,14.7,357.4,3.4,385,6.5s78.6,25.5,94,48s19.4,69.4,19.4,76.6
		c0,7.1-13.3,65.4-13.3,65.4s13.3-5.1,13.3,1s-11.2,67.4-16.3,71.5c-5.1,4.1-10.2,5.1-16.3,10.2c-6.1,5.1-12.3,37.8-16.3,44.9
		c-4.1,7.1,5.1,1,8.2,9.2s17.4,33.7,17.4,37.8s-3.1,7.1,2,12.3s149.1,64.3,153.2,68.4s39.8,53.1,54.1,102.1s86.8,264.5,86.8,268.6
		s-18.4,99.1-20.4,106.2s-16.3,41.9-16.3,51.1s7.2,24.5,5.1,29.6s-13.3,34.7-15.3,34.7C722,1044.1,23.4,1044.1,23.4,1044.1z"/>
	<path class="st1" d="M279.8,385.4c0,0,7.7,104.2,10.8,107.3s53.1-33.7,56.2-38.8s15.3-14.7,15.3-14.7h9.2h9.2l60.3,61.7L477,383.4
		l-2-12.3l-17.4-37.8c0,0,0.9,18.4-3.5,25.2s-33.7,36.4-33.7,36.4l-42,37.1l-17.3,0.7l-26.9-25.5c0,0-31.7-26.5-33.4-36.8
		s-1.5-27.1-1.5-27.1l-5.3,12.5l-4,18.9L279.8,385.4z"/>
	<polygon class="st1" points="458.3,644 582.4,644 577.1,676.2 564.8,798 511.2,828.6 447.6,805.6 	"/>
	<polyline class="st1" points="460.6,682.3 576.4,682.3 456.2,682.3 	"/>
	<circle class="st1" cx="344.5" cy="974.6" r="11.3"/>
	<circle class="st1" cx="353.7" cy="828.6" r="11.3"/>
	<circle class="st1" cx="360.6" cy="682.3" r="11.3"/>
	<circle class="st1" cx="371.9" cy="546.4" r="11.3"/>
	<circle class="st1" cx="369.3" cy="453.8" r="11.3"/>
	<path class="st1" d="M607.7,1044.1c0-0.1-16.8-69.5-16.8-69.5s-10.7-30.3-8.4-78.5c2.3-48.3,5.4-125.6,5.4-125.6s1.5-37.5,3.1-42.1
		c1.5-4.6,4.1-19.9,4.1-19.9s5.9,23.7,6.7,51.3s15.3,72.8,18.4,101.9s-3.1,60.5,0,73.5s2.5,35,0.9,50.8s-11.6,43.4-11.6,43.4
		L607.7,1044.1z"/>
	<path class="st1" d="M99.9,550.6l38.3,153.2c0,0-1.5,35.2,3.8,49s27.6,56.7,21.5,69.7s-23.7,78.9-23,87.3c0.8,8.4,3.1,48,0.8,76.1
		s-13,60.2-13,60.2h4h41.1l149-2.1l15.7-292.1L358,479.2l-11.2-25.5"/>
	<path class="st1" d="M129,518.4"/>
</g>
</svg>
